<svg xmlns="http://www.w3.org/2000/svg" viewBox="0 0 512 512">
  <rect width="512" height="512" rx="90" fill="#0f1117"/>
  <rect x="96" y="290" width="320" height="150" rx="22" fill="#1e2a45"/>
  <rect x="185" y="285" width="142" height="18" rx="6" fill="#0f1117"/>
  <rect x="205" y="80" width="102" height="215" rx="8" fill="#f0f3fa"/>
  <path d="M205 293 L217 308 L229 293 L241 308 L253 293 L265 308 L277 293 L289 308 L307 293" fill="#0f1117"/>
  <rect x="222" y="115" width="68" height="7" rx="3" fill="#c0c8dc"/>
  <rect x="222" y="135" width="50" height="7" rx="3" fill="#c0c8dc"/>
  <rect x="222" y="155" width="60" height="7" rx="3" fill="#c0c8dc"/>
  <rect x="218" y="177" width="76" height="2" rx="1" fill="#9aa5bf"/>
  <rect x="222" y="193" width="76" height="9" rx="4" fill="#4f8ef7" opacity="0.85"/>
  <rect x="126" y="315" width="180" height="42" rx="8" fill="#0d1a33"/>
  <text x="216" y="344" font-family="monospace,system-ui" font-size="26" font-weight="700" fill="#4f8ef7" text-anchor="middle">€ ---</text>
  <rect x="330" y="318" width="58" height="36" rx="10" fill="#e74c3c"/>
  <rect x="344" y="330" width="30" height="12" rx="3" fill="#ff7f7f" opacity="0.5"/>
</svg>
